<?xml version="1.0" encoding="UTF-8"?>
<svg id="Capa_1" data-name="Capa 1" xmlns="http://www.w3.org/2000/svg" viewBox="0 0 554.93 656.02">
  <defs>
    <style>
      .cls-1 {
        fill: #292623;
        stroke-width: 0px;
      }
    </style>
  </defs>
  <path class="cls-1" d="m254.1,537.54c-.39-2.25-.93-3.83-1.78-6.31-1.11-3.24-2.18-5.62-2.48-6.27-.8-1.77-2.86-6.06-6.66-11.43-4.28-6.04-7.18-8.39-8.74-9.53-.78-.57-2.58-1.33-3.39-1.73-.36-.04-.73-.07-1.12-.05-1.93.08-3.39.92-3.87,1.2-1.03.61-1.89,1.4-3.46,3.58-.76,1.05-2.09,2.99-4.16,6.92-.61,1.16-1.66,3.2-2.86,5.85-.28.62-1.17,2.59-2.22,5.26-1.8,4.53-2.9,8.1-3.29,9.37-.56,1.84-.96,3.4-1.76,6.52-.41,1.6-.74,2.94-.94,4.77-.15,1.35-.25,2.36-.06,3.7.05.35.3,2.02,1.34,3.98.23.44,1.24,2.28,3.34,4.1,1.43,1.24,2.84,1.9,5.64,3.22.97.46,3.09,1.42,5.92,2.36.39.13.74.24,1.07.35.9.03,6.15.57,6.36.56,2.59-.17,4.48-.86,6.02-1.43,3.36-1.25,5.65-2.86,7.22-3.99,1-.72,2.66-1.91,4.51-3.83,1.21-1.25,2.47-2.55,3.63-4.65,1.53-2.76,1.95-5.17,2.03-5.66.43-2.66.08-4.7-.29-6.84Z"/>
  <g>
    <path class="cls-1" d="m238.96,395.12c.62-9.33,1.33-16.88,1.81-21.59.34-3.32,1.06-10.2,2.23-18.96.91-6.83,1.7-11.95,2.47-16.88,1.21-7.77,1.82-11.66,2.83-17.12,1.16-6.26,2.56-13.71,5.12-23.24,1.04-3.85,2-7.06,2.71-9.36l1.8-6.73,1.45-4.1,1.87-6.3,1.51-4.95,1.8-5.81,3.31-10.15,3.75-12.37,3.44-12.43,2.32-9.26,3.12-15.76.8-5.69,1.04-7.88.8-14.38.16-15.6-.24-18.84-.48-17.22-.71-20.55-.89-12.02-1.2-16.57-1.2-13.89-1.39-15.12c-2.22-.27-4.47-.43-6.82-.33-11.75.48-20.69,5.62-23.61,7.34-6.27,3.7-11.5,8.51-21.09,21.82-4.63,6.42-12.73,18.24-25.36,42.22-3.72,7.06-10.12,19.51-17.44,35.66-1.71,3.76-7.11,15.78-13.57,32.08-10.95,27.65-17.71,49.39-20.07,57.13-3.41,11.21-5.86,20.73-10.75,39.77-2.51,9.75-4.52,17.95-5.72,29.07-.89,8.24-1.52,14.38-.36,22.55.3,2.13,1.85,12.34,8.14,24.27,1.43,2.71,7.54,13.92,20.34,24.99,8.73,7.55,17.29,11.59,34.42,19.67,5.91,2.79,18.86,8.68,36.13,14.36,2.38.78,4.51,1.48,6.54,2.13.24-7.16.58-13.88.98-19.97Z"/>
    <path class="cls-1" d="m417.81,257.44c-2.37-13.72-5.68-23.36-10.86-38.47-6.77-19.75-13.32-34.28-15.13-38.24-4.91-10.77-17.43-36.94-40.62-69.72-26.08-36.86-43.8-51.2-53.32-58.12-4.77-3.46-9.56-6.53-14.53-8.94l1.56,8.64c2.94,16.23,5.17,30.11,6.81,40.85,3.79,24.91,5.21,38.61,5.6,42.5.78,7.73,1.61,17.29,2.05,28.01.11,2.79.36,9.69.3,18.23-.03,4.23-.12,6.95-.18,8.44-.24,5.99-.63,10.4-.72,11.38-.22,2.44-.61,6.15-1.27,10.64-.5,3.43-.96,5.9-1.87,10.83-.56,3.04-1.35,7.27-2.47,12.54-.93,4.37-1.48,6.57-2.65,11.56-1.16,4.95-.79,3.51-4.52,20-3.25,14.38-3.56,15.58-4.34,19.63-1.1,5.69-1.88,10.53-2.41,14.01-.54,3.53-1.18,8.18-1.87,14.25-1.14,10.14-1.41,15.73-2.05,23.73-.62,7.78-1.56,15.85-3.43,31.99-1.3,11.2-1.84,14.97-3.43,28.56-.16,1.38-.56,4.8-1.14,9.42-.47,3.76-.9,6.99-1.24,9.48,5.52.17,9.38-.05,10.68-.13,15.82-1.06,27.3-5.24,36.71-8.74,20.51-7.64,34.47-17.46,44.06-24.32,6.12-4.37,16.2-11.64,27.53-23.37,7.36-7.61,15.05-15.58,22.15-28.34,9.36-16.82,11.89-31.56,12.37-34.53,2.63-16.21.48-28.67-1.78-41.74Z"/>
  </g>
  <g>
    <path class="cls-1" d="m66.6,595.78v-126.93h93.81v6.18h-87.25v51.49h77.32v5.99h-77.32v57.1h88.18v6.18h-94.73Z"/>
    <polygon class="cls-1" points="499.99 595.78 443.81 468.85 436.9 468.85 381.33 589.61 301.36 589.61 301.36 468.85 294.61 468.85 294.61 595.78 378.48 595.78 381.48 595.78 386.34 595.78 404.89 554.97 440.44 478.21 472.76 551 440.44 551 440.44 558.94 476.29 558.94 492.69 595.78 499.99 595.78"/>
  </g>
</svg>