<?xml version="1.0" encoding="UTF-8"?>
<svg id="Capa_1" data-name="Capa 1" xmlns="http://www.w3.org/2000/svg" viewBox="0 0 1366 768">
  <defs>
    <style>
      .cls-1 {
        fill: #292623;
        stroke-width: 0px;
      }
    </style>
  </defs>
  <g>
    <path class="cls-1" d="m91.63,517.54c.25-3.74.53-6.76.72-8.64.13-1.33.43-4.08.89-7.59.36-2.73.68-4.79.99-6.76.48-3.11.73-4.67,1.13-6.86.47-2.51,1.03-5.49,2.05-9.3.42-1.54.8-2.83,1.09-3.75l.72-2.69.58-1.64.75-2.52.6-1.98.72-2.33,1.33-4.06,1.5-4.95,1.38-4.98.93-3.71,1.25-6.31.32-2.28.42-3.15.32-5.76.06-6.24-.1-7.54-.19-6.89-.28-8.23-.36-4.81-.48-6.63-.48-5.56-.56-6.05c-.89-.11-1.79-.17-2.73-.13-4.7.19-8.28,2.25-9.45,2.94-2.51,1.48-4.6,3.41-8.44,8.74-1.85,2.57-5.09,7.3-10.15,16.9-1.49,2.83-4.05,7.81-6.98,14.28-.68,1.51-2.85,6.32-5.43,12.85-4.38,11.07-7.09,19.77-8.03,22.87-1.37,4.49-2.35,8.3-4.3,15.92-1,3.9-1.81,7.19-2.29,11.64-.36,3.3-.61,5.76-.14,9.03.12.85.74,4.94,3.26,9.72.57,1.09,3.02,5.57,8.14,10.01,3.49,3.02,6.92,4.64,13.78,7.87,2.37,1.12,7.55,3.47,14.47,5.75.95.31,1.8.59,2.62.85.1-2.87.23-5.56.39-7.99Z"/>
    <path class="cls-1" d="m163.23,462.42c-.95-5.49-2.27-9.35-4.35-15.4-2.71-7.91-5.33-13.72-6.06-15.31-1.97-4.31-6.98-14.79-16.26-27.92-10.44-14.76-17.54-20.5-21.35-23.27-1.91-1.39-3.83-2.62-5.82-3.58l.62,3.46c1.18,6.5,2.07,12.05,2.72,16.36,1.52,9.97,2.08,15.46,2.24,17.02.31,3.1.65,6.92.82,11.21.05,1.12.14,3.88.12,7.3-.01,1.69-.05,2.78-.07,3.38-.09,2.4-.25,4.17-.29,4.55-.09.98-.24,2.46-.51,4.26-.2,1.37-.38,2.36-.75,4.33-.22,1.22-.54,2.91-.99,5.02-.37,1.75-.59,2.63-1.06,4.63-.46,1.98-.32,1.41-1.81,8.01-1.3,5.76-1.42,6.24-1.74,7.86-.44,2.28-.75,4.21-.96,5.61-.21,1.41-.47,3.27-.75,5.71-.46,4.06-.56,6.3-.82,9.5-.25,3.12-.62,6.35-1.37,12.81-.52,4.48-.74,5.99-1.37,11.43-.06.55-.22,1.92-.46,3.77-.19,1.51-.36,2.8-.5,3.8,2.21.07,3.76-.02,4.27-.05,6.33-.42,10.93-2.1,14.7-3.5,8.21-3.06,13.8-6.99,17.64-9.74,2.45-1.75,6.49-4.66,11.02-9.36,2.94-3.05,6.03-6.24,8.87-11.35,3.75-6.73,4.76-12.64,4.95-13.83,1.05-6.49.19-11.48-.71-16.71Z"/>
  </g>
  <path class="cls-1" d="m822.78,570.33l-174.93-219.2v219.2h-12.56v-236.29h14.63c19.54,25.57,48.7,62.04,87.49,109.43,40.19,49.26,69.46,85.62,87.81,109.09v-218.52h12.56v236.29h-15Z"/>
  <path class="cls-1" d="m951.4,570.33h-79.13v-236.29h92.37c38.09,0,66.9,10.58,86.42,31.72,19.06,20.21,28.59,49.14,28.59,86.77s-11.97,68.08-35.91,88.53c-22.55,19.51-53.32,29.27-92.34,29.27Zm90.61-196.2c-17.44-19.06-43.34-28.59-77.74-28.59h-79.44v213.29h67.61c35.76,0,63.81-9,84.15-27.01,20.33-18,30.49-44.43,30.49-79.28s-8.37-60.51-25.07-78.4Z"/>
  <polygon class="cls-1" points="515.41 334.04 502.53 334.04 399.09 558.83 250.23 558.83 250.23 334.04 237.67 334.04 237.67 570.33 393.8 570.33 399.38 570.33 408.43 570.33 442.94 494.35 509.14 351.47 567.59 483.1 509.55 483.1 509.55 497.41 573.94 497.41 606.39 570.33 619.97 570.33 515.41 334.04"/>
  <polygon class="cls-1" points="1316.8 570.33 1212.24 334.04 1199.36 334.04 1090.62 570.33 1105.26 570.33 1139.77 494.35 1205.97 351.47 1264.42 483.1 1206.38 483.1 1206.38 497.41 1270.77 497.41 1303.22 570.33 1316.8 570.33"/>
  <path class="cls-1" d="m238.07,265.05v-65.88h32.56v3.67h-28.8v58.54h29.74v3.67h-33.5Zm2.92-32.47v-3.67h28.7v3.67h-28.7Z"/>
  <path class="cls-1" d="m424.98,265.99c-4.27,0-8.02-.85-11.25-2.54-3.23-1.69-5.73-4.05-7.48-7.06-1.76-3.01-2.7-6.4-2.82-10.16h3.76c.13,2.82.86,5.46,2.21,7.91,1.35,2.45,3.36,4.42,6.02,5.93,2.67,1.51,5.85,2.26,9.55,2.26s6.62-.64,9.13-1.93c2.51-1.29,4.38-2.95,5.6-4.99s1.84-4.22,1.84-6.54c0-3.2-.77-5.79-2.31-7.76-1.54-1.98-3.47-3.48-5.79-4.52-2.32-1.04-5.43-2.18-9.32-3.44-4.14-1.32-7.47-2.56-9.98-3.72-2.51-1.16-4.64-2.92-6.4-5.27-1.76-2.35-2.64-5.44-2.64-9.27,0-3.2.86-6.07,2.59-8.61,1.72-2.54,4.08-4.52,7.06-5.93,2.98-1.41,6.32-2.12,10.02-2.12,3.45,0,6.65.82,9.6,2.45,2.95,1.63,5.32,3.84,7.11,6.63,1.79,2.79,2.71,5.88,2.78,9.27h-3.77c-.13-2.57-.83-4.96-2.12-7.15-1.29-2.2-3.12-4-5.51-5.41-2.39-1.41-5.18-2.12-8.38-2.12s-5.88.58-8.23,1.74c-2.35,1.16-4.16,2.73-5.41,4.71-1.26,1.98-1.88,4.16-1.88,6.54,0,3.01.75,5.45,2.26,7.29,1.51,1.85,3.36,3.28,5.55,4.28,2.2,1,5.21,2.1,9.03,3.29,4.27,1.38,7.69,2.7,10.26,3.95,2.57,1.26,4.77,3.09,6.59,5.51,1.82,2.42,2.73,5.63,2.73,9.65,0,3.39-.89,6.37-2.68,8.94-1.79,2.57-4.24,4.58-7.34,6.02s-6.57,2.17-10.4,2.17Z"/>
  <path class="cls-1" d="m589.87,265.05v-62.21h-17.69v-3.67h39.15v3.67h-17.69v62.21h-3.76Z"/>
  <path class="cls-1" d="m765.73,265.99c-4.58,0-8.63-1-12.14-3.01-3.51-2.01-6.24-4.85-8.19-8.52-1.95-3.67-2.92-7.92-2.92-12.75v-42.54h3.76v42.54c0,4.14.8,7.76,2.4,10.87s3.86,5.51,6.78,7.2c2.92,1.69,6.35,2.54,10.31,2.54s7.29-.85,10.21-2.54c2.92-1.69,5.19-4.09,6.82-7.2,1.63-3.11,2.45-6.73,2.45-10.87v-42.54h3.77v42.54c0,4.83-.98,9.08-2.92,12.75s-4.69,6.51-8.23,8.52c-3.55,2.01-7.58,3.01-12.09,3.01Z"/>
  <path class="cls-1" d="m925.67,265.05v-65.88h15.91c7.34,0,13.74,1.36,19.2,4.09,5.46,2.73,9.68,6.59,12.66,11.58,2.98,4.99,4.47,10.75,4.47,17.27s-1.49,12.28-4.47,17.27c-2.98,4.99-7.2,8.85-12.66,11.58s-11.86,4.09-19.2,4.09h-15.91Zm15.91-3.67c6.96,0,12.89-1.29,17.79-3.86,4.89-2.57,8.56-6.07,11.01-10.49,2.45-4.42,3.67-9.39,3.67-14.92s-1.22-10.49-3.67-14.92c-2.45-4.42-6.12-7.92-11.01-10.49-4.89-2.57-10.82-3.86-17.79-3.86h-12.14v58.54h12.14Z"/>
  <path class="cls-1" d="m1112.39,265.05v-65.88h3.76v65.88h-3.76Z"/>
  <path class="cls-1" d="m1283.68,265.99c-6.02,0-11.56-1.51-16.61-4.52-5.05-3.01-9.05-7.1-12-12.28-2.95-5.18-4.42-10.87-4.42-17.08s1.47-11.91,4.42-17.08c2.95-5.18,6.95-9.27,12-12.28,5.05-3.01,10.59-4.52,16.61-4.52s11.65,1.51,16.7,4.52c5.05,3.01,9.05,7.11,12,12.28,2.95,5.18,4.42,10.87,4.42,17.08s-1.48,11.91-4.42,17.08c-2.95,5.18-6.95,9.27-12,12.28-5.05,3.01-10.62,4.52-16.7,4.52Zm0-3.67c5.46,0,10.41-1.35,14.87-4.05,4.45-2.7,7.97-6.34,10.54-10.92,2.57-4.58,3.86-9.66,3.86-15.25s-1.29-10.67-3.86-15.25c-2.57-4.58-6.09-8.22-10.54-10.92-4.45-2.7-9.41-4.05-14.87-4.05s-10.32,1.35-14.78,4.05c-4.46,2.7-7.97,6.34-10.54,10.92-2.57,4.58-3.86,9.66-3.86,15.25s1.29,10.67,3.86,15.25c2.57,4.58,6.08,8.22,10.54,10.92,4.45,2.7,9.38,4.05,14.78,4.05Z"/>
</svg>